HIERARCHY
ROOT Hips
{
	OFFSET -3.958830 18.904000 13.208200
	CHANNELS 6 Xposition Yposition Zposition Zrotation Yrotation Xrotation 
	JOINT LHipJoint
	{
		OFFSET 0.000000 0.000000 0.000000
		CHANNELS 3 Zrotation Yrotation Xrotation
		JOINT LeftUpLeg
		{
			OFFSET 1.800000 -1.400000 0.085000
			CHANNELS 3 Zrotation Yrotation Xrotation
			JOINT LeftLeg
			{
				OFFSET 2.215000 -6.000000 0.000000
				CHANNELS 3 Zrotation Yrotation Xrotation
				JOINT LeftFoot
				{
					OFFSET 2.500000 -6.900000 0.000000
					CHANNELS 3 Zrotation Yrotation Xrotation
					JOINT LeftToeBase
					{
						OFFSET 0.200000 -0.500000 1.950000
						CHANNELS 3 Zrotation Yrotation Xrotation
						End Site
						{
							OFFSET 0.000000 0.000000 0.000000
						}
					}
				}
			}
		}
	}
	JOINT RHipJoint
	{
		OFFSET 0.000000 0.000000 0.000000
		CHANNELS 3 Zrotation Yrotation Xrotation
		JOINT RightUpLeg
		{
			OFFSET -1.800000 -1.400000 0.085000
			CHANNELS 3 Zrotation Yrotation Xrotation
			JOINT RightLeg
			{
				OFFSET -2.215000 -6.000000 0.000000
				CHANNELS 3 Zrotation Yrotation Xrotation
				JOINT RightFoot
				{
					OFFSET -2.500000 -6.900000 0.000000
					CHANNELS 3 Zrotation Yrotation Xrotation
					JOINT RightToeBase
					{
						OFFSET -0.200000 -0.500000 1.950000
						CHANNELS 3 Zrotation Yrotation Xrotation
						End Site
						{
							OFFSET 0.000000 0.000000 0.000000
						}
					}
				}
			}
		}
	}
	JOINT LowerBack
	{
		OFFSET 0.000000 0.000000 0.000000
		CHANNELS 3 Zrotation Yrotation Xrotation
		JOINT Spine
		{
			OFFSET -0.087000 1.940000 -0.288900
			CHANNELS 3 Zrotation Yrotation Xrotation
			JOINT Spine1
			{
				OFFSET 0.000000 1.950000 0.060000
				CHANNELS 3 Zrotation Yrotation Xrotation
				JOINT Neck
				{
					OFFSET 0.000000 0.000000 0.000000
					CHANNELS 3 Zrotation Yrotation Xrotation
					JOINT Neck1
					{
						OFFSET 0.000000 1.600000 0.340000
						CHANNELS 3 Zrotation Yrotation Xrotation
						JOINT Head
						{
							OFFSET 0.000000 1.667000 -0.240000
							CHANNELS 3 Zrotation Yrotation Xrotation
							End Site
							{
								OFFSET 0.000000 0.000000 0.000000
							}
						}
					}
				}
				JOINT LeftShoulder
				{
					OFFSET 0.000000 0.000000 0.000000
					CHANNELS 3 Zrotation Yrotation Xrotation
					JOINT LeftArm
					{
						OFFSET 2.700000 1.550000 -0.730000
						CHANNELS 3 Zrotation Yrotation Xrotation
						JOINT LeftForeArm
						{
							OFFSET 5.450000 0.000000 0.000000
							CHANNELS 3 Zrotation Yrotation Xrotation
							JOINT LeftHand
							{
								OFFSET 3.450000 0.000000 0.000000
								CHANNELS 3 Zrotation Yrotation Xrotation
								JOINT LeftHandIndex1
								{
									OFFSET 0.750000 0.000000 0.000000
									CHANNELS 3 Zrotation Yrotation Xrotation
									End Site
									{
										OFFSET 0.000000 0.000000 0.000000
									}
								}
							}
						}
					}
				}
				JOINT RightShoulder
				{
					OFFSET 0.000000 0.000000 0.000000
					CHANNELS 3 Zrotation Yrotation Xrotation
					JOINT RightArm
					{
						OFFSET -2.700000 1.550000 -0.730000
						CHANNELS 3 Zrotation Yrotation Xrotation
						JOINT RightForeArm
						{
							OFFSET -5.450000 0.000000 0.000000
							CHANNELS 3 Zrotation Yrotation Xrotation
							JOINT RightHand
							{
								OFFSET -3.450000 0.000000 0.000000
								CHANNELS 3 Zrotation Yrotation Xrotation
								JOINT RightHandIndex1
								{
									OFFSET -0.750000 0.000000 0.000000
									CHANNELS 3 Zrotation Yrotation Xrotation
									End Site
									{
										OFFSET 0.000000 0.000000 0.000000
									}
								}
							}
						}
					}
				}
			}
		}
	}
}
MOTION
Frames: 6
Frame Time: 0.016667
0.598340 17.000620 -2.087370 -2.245677 -8.104558 -6.241332 -14.801535 13.548648 3.291401 24.383326 0.048805 -3.418055 -1.321324 4.912424 1.377812 -0.193598 5.116078 2.867742 0.437740 0.080750 0.342040 18.498413 -10.836072 2.440674 -1.698118 4.136778 -15.410764 -1.121316 -5.257246 32.490058 -0.546056 -4.304317 2.871199 0.021090 -0.022020 0.134580 -4.292940 -1.980157 -7.351688 41.918489 -20.043782 25.270654 -22.015054 -9.513734 12.651114 12.726787 -12.101478 -13.530513 -28.567600 9.186316 39.672028 -8.611630 -1.894970 -18.434790 -23.455825 -13.125579 5.366898 -34.486638 0.327314 -1.113294 2.915972 1.481914 -0.687865 -3.558742 2.808282 0.681940 -0.212690 0.127930 0.126730 -1.952413 21.247766 9.124594 7.531960 9.268100 -14.652275 -121.498161 16.757732 -45.369195 1.961993 -1.911439 -0.118250 0.275650 0.040790 -0.202110 
0.594780 17.032080 -2.098000 -1.721592 -8.414095 -6.328620 -14.813721 13.682538 3.270699 23.433483 0.118790 -3.039317 -0.908999 4.796000 1.287738 -0.182204 5.005274 2.921685 0.472800 0.124590 0.351630 18.468552 -10.852935 2.438873 -1.850267 4.026969 -15.029000 -1.522841 -4.822933 31.289120 -0.525381 -4.100780 2.946522 0.040500 -0.041310 0.114940 -4.223245 -2.156651 -7.334942 41.175426 -19.562099 26.244744 -20.747993 -9.406901 12.390036 12.501409 -12.519301 -13.601246 -29.686800 9.322386 40.020502 -7.752010 -2.681380 -19.149640 -23.800013 -13.179825 5.225299 -35.364308 0.388995 -1.478957 2.492424 0.634466 -0.740525 -3.499145 2.825516 0.686590 -0.245580 0.140290 0.147290 -1.045424 21.966801 9.262380 7.758282 10.768309 -13.987394 -125.738413 13.857001 -44.610180 1.961094 -1.959633 -0.107580 0.283040 0.009710 -0.189620 
0.590840 17.059860 -2.110730 -1.454281 -9.364387 -5.982912 -14.789091 13.729927 3.192059 22.751320 0.193082 -3.048325 -0.780919 4.771792 1.908819 -0.178416 4.879029 2.963664 0.489060 0.157850 0.340910 18.479815 -10.906494 2.496917 -1.797006 4.230941 -15.328935 -1.803291 -4.455031 30.478065 -0.500128 -3.940071 3.005660 0.050360 -0.052650 0.097540 -4.254581 -2.069475 -7.300988 41.213240 -19.095439 26.673873 -20.341288 -8.930259 12.251504 12.222805 -12.833070 -13.829455 -30.702902 9.527188 40.229702 -6.787240 -3.266330 -19.310890 -23.759484 -13.444060 5.325400 -36.067466 0.457755 -1.692087 2.103194 0.118709 -0.753144 -3.457186 2.848378 0.676180 -0.266980 0.144260 0.160150 -0.412818 22.776831 9.408730 7.901973 11.937769 -13.417195 -128.793657 11.807289 -43.878845 1.963380 -2.001647 -0.091820 0.281820 -0.007710 -0.171650 
0.580550 17.086020 -2.134530 -1.300952 -10.918594 -5.619957 -14.757516 13.703306 3.146283 22.545420 0.277337 -3.105297 -1.414881 4.896725 2.671335 -0.185526 4.847609 2.964130 0.514490 0.186010 0.348780 18.505811 -10.934086 2.586038 -1.402074 4.703219 -15.865495 -2.356854 -4.004202 30.100987 -0.496453 -3.807152 3.041870 0.062280 -0.071900 0.087180 -4.313181 -1.886792 -7.307404 40.954583 -18.452608 27.589038 -20.176311 -8.034377 12.275819 11.966635 -12.775008 -14.116402 -31.088629 9.895408 41.110953 -5.473890 -3.605200 -19.739390 -23.713979 -14.024879 5.525143 -36.275491 0.213632 -1.641966 2.275795 0.523289 -0.732505 -3.423929 2.863333 0.694930 -0.296760 0.159660 0.170570 0.168873 23.584647 9.544792 7.898007 12.548097 -13.193937 -130.379704 10.832974 -43.645404 1.962724 -2.022731 -0.086840 0.281290 -0.024420 -0.169300 
0.577020 17.098980 -2.155750 -1.488776 -11.538993 -4.805920 -14.721306 13.615918 3.087832 22.534835 0.291603 -4.260640 -1.984066 4.979308 3.525726 -0.247812 4.824094 2.964269 0.492020 0.147500 0.339550 18.543060 -10.958410 2.683540 -1.131226 5.207421 -16.926444 -2.321043 -3.922169 30.129333 -0.472477 -3.779983 3.046870 0.056840 -0.038250 0.102190 -4.410919 -1.617217 -7.316473 41.356564 -17.893817 27.296738 -20.210086 -7.327448 12.415864 11.765012 -12.512620 -13.952615 -30.029485 9.558811 41.137863 -5.790530 -3.370740 -18.967880 -23.611019 -14.171795 5.469808 -35.993790 -0.414509 -1.377623 2.217416 1.042563 -0.750644 -3.481833 2.843069 0.696260 -0.263100 0.138870 0.166200 0.450718 23.604812 9.391949 8.080797 13.274908 -13.019835 -130.476270 10.822477 -43.682453 1.937372 -2.015919 -0.110990 0.288820 -0.000080 -0.180610 
0.561840 17.096910 -2.172930 -1.603200 -12.085819 -4.069126 -14.695329 13.547640 3.035585 22.784247 0.352841 -5.742284 -2.912447 5.229277 5.032261 -0.275977 4.818931 2.939024 0.478210 0.136410 0.336240 18.569492 -10.968681 2.779551 -0.901323 5.693568 -17.909596 -2.181616 -3.905115 30.414189 -0.457339 -3.794837 3.031695 0.054430 -0.024040 0.122130 -4.481227 -1.400801 -7.342202 41.219799 -17.171279 27.207334 -20.037929 -6.585680 12.477904 11.618805 -12.174622 -13.642974 -28.449781 8.932706 40.734355 -6.471740 -2.886570 -18.310560 -23.494113 -13.946747 5.244312 -35.453543 -1.016046 -1.251057 2.170102 0.950934 -0.771184 -3.531634 2.849338 0.670060 -0.231420 0.126880 0.158100 0.572309 23.266169 9.171459 8.245421 13.838495 -12.818117 -130.343355 11.198164 -44.299622 1.930254 -2.019954 -0.106700 0.271800 0.009450 -0.181790 
